<svg id="Layer_1" data-name="Layer 1" xmlns="http://www.w3.org/2000/svg" width="321.1678" height="278.1395" viewBox="0 0 321.1678 278.1395"><defs><style>.cls-1{fill:#0a2f44;}.cls-2{fill:#efefef;}</style></defs><title>fc-logo</title><polygon class="cls-1" points="240.876 0 321.168 139.07 240.876 278.139 80.292 278.139 0 139.07 80.292 0 240.876 0"/><path class="cls-2" d="M144.1162,187.54v21.9756h46.9043v27.7168H144.1162v39.1963h-32.8V159.66h82.9849v27.88Z" transform="translate(-39.4161 -79)"/><path class="cls-2" d="M304.5381,200.81H273.04c-1.2-10.4995-7.2-16.6494-17.25-16.6494-11.999,0-19.6494,11.4-19.6494,30.2988,0,18.75,7.65,30.2988,19.6494,30.2988,9.75,0,16.35-6.4492,17.4-17.5488h31.9492c-2.25,27.8984-21.1494,43.0478-49.3487,43.0478-31.7988,0-50.998-21.1494-50.998-55.7978s19.35-55.7979,50.998-55.7979C284.5889,158.6611,303.3379,174.4106,304.5381,200.81Z" transform="translate(-39.4161 -79)"/><rect class="cls-1" x="71.5839" y="193" width="34" height="5"/></svg>