<svg height='100px' width='100px'  fill="#000000" xmlns="http://www.w3.org/2000/svg" xmlns:xlink="http://www.w3.org/1999/xlink" version="1.1" x="0px" y="0px" viewBox="0 0 70 70" style="enable-background:new 0 0 70 70;" xml:space="preserve"><path d="M35,68c18.1962891,0,33-14.8037109,33-33S53.1962891,2,35,2S2,16.8037109,2,35S16.8037109,68,35,68z M35,4  c17.09375,0,31,13.9067383,31,31S52.09375,66,35,66S4,52.0932617,4,35S17.90625,4,35,4z"></path><path d="M35,61.5043945c14.6142578,0,26.5039062-11.8896484,26.5039062-26.5043945S49.6142578,8.4956055,35,8.4956055  S8.4960938,20.3852539,8.4960938,35S20.3857422,61.5043945,35,61.5043945z M35,10.4956055  c13.5117188,0,24.5039062,10.9926758,24.5039062,24.5043945S48.5117188,59.5043945,35,59.5043945  S10.4960938,48.5117188,10.4960938,35S21.4882812,10.4956055,35,10.4956055z"></path><path d="M35,49.3813477c-4.0419922,0-7.3300781-3.0014648-7.3300781-6.6904297c0-0.5522461-0.4472656-1-1-1s-1,0.4477539-1,1  c0,4.4771729,3.6542358,8.1722412,8.3300781,8.6387329V53.75c0,0.5522461,0.4472656,1,1,1s1-0.4477539,1-1v-2.4203491  c4.6758423-0.4664917,8.3300781-4.1615601,8.3300781-8.6387329C44.3300781,37.8989258,40.1445312,34,35,34  c-4.0419922,0-7.3300781-3.0014648-7.3300781-6.690918c0-3.6889648,3.2880859-6.6904297,7.3300781-6.6904297  s7.3300781,3.0014648,7.3300781,6.6904297c0,0.5522461,0.4472656,1,1,1s1-0.4477539,1-1  c0-4.4771729-3.6542358-8.1722412-8.3300781-8.6387329V16.25c0-0.5522461-0.4472656-1-1-1s-1,0.4477539-1,1v2.4203491  c-4.6758423,0.4664917-8.3300781,4.1615601-8.3300781,8.6387329C25.6699219,32.1010742,29.8554688,36,35,36  c4.0419922,0,7.3300781,3.0014648,7.3300781,6.690918C42.3300781,46.3798828,39.0419922,49.3813477,35,49.3813477z"></path></svg>