<svg xmlns="http://www.w3.org/2000/svg" width="400" height="400" viewBox="0 0 400 400"><path d="M103.92,158.52h15.92v-9.84c0-26.73,22.07-36.14,51.87-33.15V138c-14.56-.64-20.93,1.07-20.93,12.4v8.13h20.93v20.1H150.78v89.6H119.84v-89.6H103.92Z" fill="#0a2f44"/><path d="M192,210.29c0-34.81,22.75-61.65,58.24-61.65,30.26,0,48.91,17.52,53,42.77H273c-2.05-10.24-10-18-21.39-18-18.65,0-28.2,14.33-28.2,36.85,0,22.07,8.87,36.85,27.75,36.85,12.51,0,21.38-6.59,23.43-19.79h29.8c-2,24.8-21.38,44.59-52.55,44.59C214.94,271.94,192,245.1,192,210.29Z" fill="#0a2f44"/><circle cx="200" cy="200" r="175" fill="none" stroke="#0a2f44" stroke-miterlimit="10" stroke-width="18"/></svg>