<svg height='100px' width='100px'  fill="#000000" xmlns="http://www.w3.org/2000/svg" data-name="Layer 1" viewBox="0 0 100 100" x="0px" y="0px"><title>39</title><g data-name="Group"><path data-name="Compound Path" d="M77.3,36a11.9,11.9,0,1,0,0-23.9H22.7a11.9,11.9,0,0,0,0,23.9H49v9.1H22.7a11.9,11.9,0,0,0,0,23.9H49V85.9H14.2a1,1,0,0,0,0,2H85.8a1,1,0,0,0,0-2H51V69H77.3a11.9,11.9,0,1,0,0-23.9H51V36Zm9.9,21.1A9.9,9.9,0,0,1,77.3,67H22.7a9.9,9.9,0,0,1,0-19.9H77.3A9.9,9.9,0,0,1,87.2,57.1Zm-74.4-33a9.9,9.9,0,0,1,9.9-9.9H77.3a9.9,9.9,0,1,1,0,19.9H22.7A9.9,9.9,0,0,1,12.8,24.1Z"></path><path data-name="Path" d="M71.8,23.1H63.6a1,1,0,0,0,0,2h8.2a1,1,0,0,0,0-2Z"></path><path data-name="Path" d="M63.6,58.1h8.2a1,1,0,0,0,0-2H63.6a1,1,0,0,0,0,2Z"></path></g></svg>