<svg height='100px' width='100px'  fill="#000000" xmlns="http://www.w3.org/2000/svg" xmlns:xlink="http://www.w3.org/1999/xlink" version="1.1" x="0px" y="0px" viewBox="0 0 70 70" style="enable-background:new 0 0 70 70;" xml:space="preserve"><path d="M65.7724609,2H4.2275391C2.9384766,2,1.8901367,3.0068359,1.8901367,4.2446289v61.5107422  C1.8901367,66.9931641,2.9384766,68,4.2275391,68h61.5449219c1.2890625,0,2.3374023-1.0068359,2.3374023-2.2446289V4.2446289  C68.1098633,3.0068359,67.0615234,2,65.7724609,2z M4.2275391,4h61.5449219c0.1831055,0,0.3374023,0.1118164,0.3374023,0.2446289  V16.378418H3.8901367V4.2446289C3.8901367,4.1118164,4.0444336,4,4.2275391,4z M65.7724609,66H4.2275391  c-0.1831055,0-0.3374023-0.1118164-0.3374023-0.2446289V18.378418h62.2197266v47.3769531  C66.1098633,65.8881836,65.9555664,66,65.7724609,66z"></path><path d="M7.347168,11.1914062h2.2675781c0.5522461,0,1-0.4477539,1-1s-0.4477539-1-1-1H7.347168c-0.5522461,0-1,0.4477539-1,1  S6.7949219,11.1914062,7.347168,11.1914062z"></path><path d="M15.1298828,11.1914062h2.2675781c0.5522461,0,1-0.4477539,1-1s-0.4477539-1-1-1h-2.2675781c-0.5522461,0-1,0.4477539-1,1  S14.5776367,11.1914062,15.1298828,11.1914062z"></path><path d="M22.9125977,11.1914062h2.2675781c0.5522461,0,1-0.4477539,1-1s-0.4477539-1-1-1h-2.2675781c-0.5522461,0-1,0.4477539-1,1  S22.3603516,11.1914062,22.9125977,11.1914062z"></path><path d="M30.3334961,11.1914062H61.5c0.5522461,0,1-0.4477539,1-1s-0.4477539-1-1-1H30.3334961c-0.5522461,0-1,0.4477539-1,1  S29.78125,11.1914062,30.3334961,11.1914062z"></path><path d="M37.7695312,28.9794922c-2.1293945-2.1274414-4.9594727-3.2988281-7.9697266-3.2988281  c-3.0146484,0-5.8476562,1.1743164-7.9770508,3.3056641s-3.3012695,4.9633789-3.300293,7.9755859  c0.0009766,3.0107422,1.175293,5.8417969,3.3061523,7.972168c2.1298828,2.1279297,4.9604492,3.2998047,7.9711914,3.2998047  h0.0014648c3.0126953,0,5.8452148-1.1743164,7.9760742-3.3061523  C42.1713867,40.5292969,42.1679688,33.3754883,37.7695312,28.9794922z M36.3623047,43.5136719  c-1.7524414,1.7543945-4.0830078,2.7202148-6.5625,2.7202148c-2.4765625,0-4.8051758-0.9638672-6.5571289-2.7148438  c-1.753418-1.7519531-2.7192383-4.0810547-2.7202148-6.5581055c-0.0009766-2.4775391,0.9633789-4.8076172,2.715332-6.5610352  c1.7514648-1.753418,4.0820312-2.7192383,6.5620117-2.7192383c2.4760742,0,4.8046875,0.9638672,6.5561523,2.7138672  C39.9746094,34.0107422,39.9775391,39.8959961,36.3623047,43.5136719z"></path><path d="M50.5872192,49.689209c-0.0003662-0.0004883-0.0004272-0.0008545-0.0007935-0.0012207  s-0.0007935-0.0004883-0.0011597-0.0007324l-3.4402466-3.4367676c-0.3896484-0.3896484-1.0234375-0.3901367-1.4140625,0.0004883  l-2.6049194,2.6071777l-1.4077759-1.40625c2.5653687-2.9063721,3.9807739-6.5913086,3.9790039-10.501709  c-0.0019531-4.2460938-1.6572266-8.237793-4.6611328-11.2392578c-3.0024414-2.9995117-6.9926758-4.6513672-11.2363281-4.6513672  c-0.0024414,0-0.0048828,0-0.0073242,0c-4.2460938,0.0019531-8.237793,1.6572266-11.2392578,4.6616211  c-6.1953125,6.2011719-6.190918,16.2866211,0.0102539,22.4824219c3.0986328,3.0961914,7.1669922,4.6435547,11.2358398,4.6435547  c3.7597656,0,7.5099487-1.3393555,10.5040283-3.9819336l1.4092407,1.4077148l-2.6876831,2.6899414  c-0.1875,0.1879883-0.2924805,0.4423828-0.2924805,0.7075195s0.1054688,0.5195312,0.293457,0.7070312L42.4641724,57.8125  c0.0007324,0.0007324,0.0009155,0.001709,0.0016479,0.0024414s0.00177,0.0009766,0.0025024,0.001709l3.7377319,3.7341309  c1.1420898,1.140625,2.6079102,1.7680664,4.1308594,1.7680664c0.0073242,0,0.0151367,0,0.0229492,0  c1.5009766-0.0063477,2.9321289-0.6147461,4.0292969-1.7128906c2.3139648-2.3164062,2.2866211-5.8339844-0.0634766-8.1821289  L50.5872192,49.689209z M19.9770508,46.7885742c-5.4208984-5.4160156-5.4248047-14.2329102-0.0087891-19.6542969  c2.6235352-2.6259766,6.1132812-4.0732422,9.8251953-4.074707c0.0024414,0,0.0039062,0,0.0063477,0  c3.7094727,0,7.1982422,1.4438477,9.8227539,4.0664062c2.6259766,2.6235352,4.0732422,6.1132812,4.074707,9.8251953  c0.0014648,3.7124023-1.4423828,7.2026367-4.0664062,9.8286133C34.215332,52.2016602,25.3974609,52.2045898,19.9770508,46.7885742z   M46.4389648,48.3720703l2.0259399,2.0239258l-5.2927246,5.2969971l-2.0256958-2.0235596L46.4389648,48.3720703z   M52.9741211,60.1923828c-0.7216797,0.722168-1.652832,1.1225586-2.6225586,1.1264648c-0.0048828,0-0.0097656,0-0.0146484,0  c-0.9887695,0-1.953125-0.4199219-2.7172852-1.1831055l-3.0321655-3.0289307l5.2926636-5.2969971l3.0319824,3.0290527  C54.480957,56.40625,54.5073242,58.6582031,52.9741211,60.1923828z"></path></svg>