<svg height='100px' width='100px'  fill="#000000" xmlns="http://www.w3.org/2000/svg" xmlns:xlink="http://www.w3.org/1999/xlink" version="1.1" x="0px" y="0px" viewBox="0 0 100 100" enable-background="new 0 0 100 100" xml:space="preserve"><g><path fill="#000000" d="M93,88H7V22h86V88z M9,86h82V24H9V86z"></path></g><g><path fill="#000000" d="M93,24H7v-9.2c0-1.7,1.8-2.8,3.4-2.8h79.2c1.6,0,3.4,1.1,3.4,2.8V24z M9,22h82v-7.2c0-0.4-0.7-0.8-1.4-0.8   H10.4C9.7,14,9,14.4,9,14.8V22z"></path></g><g><circle fill="#000000" cx="14.2" cy="17.8" r="1.5"></circle></g><g><circle fill="#000000" cx="19.2" cy="17.8" r="1.5"></circle></g><g><circle fill="#000000" cx="24.2" cy="17.8" r="1.5"></circle></g><g><path fill="#000000" d="M34.2,58.3h-17V41.5h17V58.3z M18.2,57.3h15V42.5h-15V57.3z"></path></g><g><path fill="#000000" d="M34.2,79.3h-17V62.5h17V79.3z M18.2,78.3h15V63.5h-15V78.3z"></path></g><g><path fill="#000000" d="M40.6,30.5H17.4c-0.3,0-0.5-0.2-0.5-0.5s0.2-0.5,0.5-0.5h23.3c0.3,0,0.5,0.2,0.5,0.5S40.9,30.5,40.6,30.5z"></path></g><g><path fill="#000000" d="M40.6,34.6H17.4c-0.3,0-0.5-0.2-0.5-0.5s0.2-0.5,0.5-0.5h23.3c0.3,0,0.5,0.2,0.5,0.5S40.9,34.6,40.6,34.6z"></path></g><g><path fill="#000000" d="M81.1,27.6c-2.9,0-5.2,2.3-5.2,5.2c0,2.9,2.3,5.2,5.2,5.2c2.9,0,5.2-2.3,5.2-5.2C86.3,30,84,27.6,81.1,27.6   z M81.1,35.4h-2.5c0,0,0-0.5,0.2-0.9c0.2-0.3,0.8-0.5,1.7-0.9V33c0,0-0.3-0.2-0.3-0.6c-0.1,0-0.2-0.4,0-0.5c0-0.1-0.4-1.1,0.2-1.1   c0.1-0.4,1.6-0.4,1.8,0.1c0.1,0.4-0.2,0.9-0.2,1c0.2,0.1,0.1,0.5,0,0.5c0,0.4-0.3,0.7-0.3,0.7v0.7c0.9,0.3,1.5,0.5,1.7,0.9   c0.2,0.4,0.2,0.9,0.2,0.9H81.1z"></path></g><g><path fill="#000000" d="M55.5,46.2H38.7c-0.3,0-0.5-0.2-0.5-0.5s0.2-0.5,0.5-0.5h16.8c0.3,0,0.5,0.2,0.5,0.5S55.8,46.2,55.5,46.2z"></path></g><g><path fill="#000000" d="M55.5,50.4H38.7c-0.3,0-0.5-0.2-0.5-0.5s0.2-0.5,0.5-0.5h16.8c0.3,0,0.5,0.2,0.5,0.5S55.8,50.4,55.5,50.4z"></path></g><g><path fill="#000000" d="M48.3,54.7h-9.6c-0.3,0-0.5-0.2-0.5-0.5s0.2-0.5,0.5-0.5h9.6c0.3,0,0.5,0.2,0.5,0.5S48.6,54.7,48.3,54.7z"></path></g><g><path fill="#000000" d="M55.5,67.2H38.7c-0.3,0-0.5-0.2-0.5-0.5s0.2-0.5,0.5-0.5h16.8c0.3,0,0.5,0.2,0.5,0.5S55.8,67.2,55.5,67.2z"></path></g><g><path fill="#000000" d="M55.5,71.4H38.7c-0.3,0-0.5-0.2-0.5-0.5s0.2-0.5,0.5-0.5h16.8c0.3,0,0.5,0.2,0.5,0.5S55.8,71.4,55.5,71.4z"></path></g><g><path fill="#000000" d="M48.3,75.7h-9.6c-0.3,0-0.5-0.2-0.5-0.5s0.2-0.5,0.5-0.5h9.6c0.3,0,0.5,0.2,0.5,0.5S48.6,75.7,48.3,75.7z"></path></g></svg>